<?xml version="1.0" encoding="utf-8"?>
<!-- Generator: Adobe Illustrator 19.1.0, SVG Export Plug-In . SVG Version: 6.00 Build 0)  -->
<svg version="1.0" id="Layer_1" xmlns="http://www.w3.org/2000/svg" xmlns:xlink="http://www.w3.org/1999/xlink" x="0px" y="0px"
	 viewBox="0 0 352 78.9" enable-background="new 0 0 352 78.9" xml:space="preserve">
<g>
	<g>
		<path fill="#010202" d="M41.8,40.7h6.6v2.2c0,8-1.4,13-4.1,15c-2.7,2-9.6,3-20.6,3c-9.8,0-16.1-1.8-18.7-5.3
			c-2.7-3.5-4-11.8-4-24.8c0-10.2,0.3-16.6,0.9-19.2c0.6-2.6,2.3-5,5.2-7C10.4,2.2,17.6,1,28.6,1c7.5,0,12.5,1.2,15.1,3.5
			c2.6,2.3,3.9,6.8,3.9,13.5l0,1.6h-6.6l0-1.8c0-4.7-0.8-7.8-2.3-9.1c-1.5-1.3-5-2-10.4-2C18.9,6.6,13.1,7.4,11,9
			c-2.1,1.6-3.1,5.9-3.1,13.1c0,16.5,0.7,26.1,2.1,29c1.4,2.8,6.2,4.3,14.4,4.3c7.8,0,12.7-0.6,14.6-1.8c1.9-1.2,2.9-4.3,2.9-9.3
			L41.8,40.7z"/>
		<path fill="#010202" d="M61.6,1.6v58.7h-6V1.6H61.6z"/>
		<path fill="#010202" d="M100.7,47.9h6.1l0,1.5c0,4.3-1.3,7.3-3.9,9c-2.6,1.7-7.1,2.6-13.7,2.6c-7.6,0-12.5-1.4-14.9-4.1
			C72.1,54,71,48.2,71,39.3c0-8.2,1.2-13.7,3.6-16.5c2.4-2.8,7-4.2,14-4.2c7.6,0,12.5,1.2,14.9,3.7c2.3,2.4,3.5,7.6,3.5,15.4v3.2
			H77.3c0,6.5,0.7,10.6,2.1,12.4c1.4,1.8,4.6,2.7,9.7,2.7c4.8,0,8-0.4,9.4-1.3c1.4-0.8,2.2-2.7,2.2-5.5V47.9z M100.7,36.2l0-1.9
			c0-4.4-0.7-7.3-2.2-8.7c-1.5-1.3-4.6-2-9.5-2c-4.9,0-8,0.8-9.5,2.3c-1.4,1.6-2.2,5-2.2,10.3H100.7z"/>
		<path fill="#010202" d="M146.8,19.2l-13.8,41.1h-8.6l-13.6-41.1h6.2l7.3,22.4l2.3,7l1.1,3.5l1.1,3.5h0.2l1-3.5l1-3.5l2.2-7l7-22.4
			H146.8z"/>
		<path fill="#010202" d="M180.4,47.9h6.1l0,1.5c0,4.3-1.3,7.3-3.9,9c-2.6,1.7-7.1,2.6-13.7,2.6c-7.6,0-12.5-1.4-14.9-4.1
			c-2.4-2.8-3.5-8.6-3.5-17.4c0-8.2,1.2-13.7,3.6-16.5c2.4-2.8,7-4.2,14-4.2c7.6,0,12.5,1.2,14.9,3.7c2.3,2.4,3.5,7.6,3.5,15.4v3.2
			H157c0,6.5,0.7,10.6,2.1,12.4c1.4,1.8,4.6,2.7,9.7,2.7c4.8,0,8-0.4,9.4-1.3c1.4-0.8,2.2-2.7,2.2-5.5V47.9z M180.4,36.2l0-1.9
			c0-4.4-0.7-7.3-2.2-8.7c-1.5-1.3-4.6-2-9.5-2c-4.9,0-8,0.8-9.5,2.3c-1.4,1.6-2.2,5-2.2,10.3H180.4z"/>
		<path fill="#010202" d="M196.7,19.2h6l-0.6,4.7l0.1,0.1c2.4-3.9,6.3-5.8,11.8-5.8c7.6,0,11.4,3.9,11.4,11.7l0,2.8h-5.9l0.1-1
			c0.1-1.1,0.1-1.8,0.1-2.2c0-4.2-2.3-6.3-6.9-6.3c-6.7,0-10.1,4.1-10.1,12.4v24.6h-6V19.2z"/>
		<path fill="#F2904D" d="M254.4,11.6v48.7h-11.1V11.6h-16.9v-10h45.6v10H254.4z"/>
	</g>
	<g>
		<path fill="#F2904D" d="M276.4,31.1h-10.1c0-4.9,1.1-8.2,3.4-9.9c2.3-1.7,6.8-2.5,13.6-2.5c7.4,0,12.4,1,15,3.1
			c2.6,2,3.9,5.9,3.9,11.7v26.9h-9.8l0.5-5.6l-0.3,0c-1.9,4.1-6.3,6.1-13.1,6.1c-9.9,0-14.9-4.2-14.9-12.7c0-8.5,5.1-12.8,15.3-12.8
			c6.8,0,10.9,1.6,12.4,4.7h0.2v-6.7c0-3.2-0.6-5.3-1.7-6.4c-1.1-1-3.4-1.6-6.9-1.6C278.9,25.3,276.4,27.3,276.4,31.1z M283,41.9
			c-5.6,0-8.3,1.9-8.3,5.8c0,2.7,0.6,4.4,1.7,5.2c1.1,0.8,3.6,1.2,7.2,1.2c6,0,9-2,9-6.1C292.6,44,289.4,41.9,283,41.9z"/>
		<path fill="#F2904D" d="M312.1,19.2h10l-0.4,6.1l0.2,0c2.4-4.4,6.8-6.7,13.3-6.7c6,0,10.1,1.5,12.4,4.4c2.2,3,3.4,8.4,3.4,16.2
			c0,8.2-1.1,13.8-3.4,16.9c-2.2,3-6.4,4.6-12.4,4.6c-6.4,0-10.7-2.1-12.6-6.4h-0.2v23.6h-10.3V19.2z M331.5,26.5
			c-3.8,0-6.2,0.8-7.4,2.5c-1.1,1.7-1.7,5.3-1.7,10.7c0,5.3,0.6,8.9,1.8,10.6c1.2,1.7,3.7,2.6,7.5,2.6c3.8,0,6.3-0.8,7.5-2.5
			c1.1-1.7,1.7-5.2,1.7-10.7c0-5.6-0.6-9.2-1.7-10.9C338.1,27.3,335.5,26.5,331.5,26.5z"/>
	</g>
	<g>
		<rect x="246.5" y="21.1" fill="#F2904D" width="4.3" height="9.2"/>
	</g>
</g>
</svg>
